Coordinates
version=1
nRows=11
nColumns=36
inDegrees=yes

Units are S.I. units (second, meters, Newtons, ...)
If the header above contains a line with 'inDegrees', this indicates whether rotational values are in degrees (yes) or radians (no).

endheader
time	pelvis_tilt	pelvis_list	pelvis_rotation	pelvis_tx	pelvis_ty	pelvis_tz	hip_flexion_r	hip_adduction_r	hip_rotation_r	knee_angle_r	knee_angle_r_beta	ankle_angle_r	subtalar_angle_r	mtp_angle_r	hip_flexion_l	hip_adduction_l	hip_rotation_l	knee_angle_l	knee_angle_l_beta	ankle_angle_l	subtalar_angle_l	mtp_angle_l	lumbar_extension	lumbar_bending	lumbar_rotation	arm_flex_r	arm_add_r	arm_rot_r	elbow_flex_r	pro_sup_r	arm_flex_l	arm_add_l	arm_rot_l	elbow_flex_l	pro_sup_l
      8.05000000	     -7.76353218	      0.23409226	     -3.30618846	      0.05492888	      0.91052269	      0.07967857	      9.91289735	     -1.71281414	     -5.08692012	      1.48180786	      0.02586243	     -2.30770260	    -17.22913191	     -7.49999987	      8.84700418	     -5.80356843	     -8.16926845	      1.11826442	      0.01951740	     -2.02417284	    -12.12936547	     -7.49999987	      2.29809315	      0.07202461	      4.82773060	     44.17448418	      4.85321522	     72.03291226	    112.27434378	     82.90806859	     51.61326280	      4.24467211	     71.64694132	    113.74517013	     64.17193906
      8.06666670	     -7.91969870	      0.31711357	     -3.13439222	      0.05302520	      0.91290263	      0.07890118	     10.88410884	     -1.93906499	     -4.94007786	      2.80212297	      0.04890627	     -2.13439616	    -17.96806771	     -7.49999987	      9.70462865	     -5.73648717	     -7.65837604	      2.17609061	      0.03797995	     -2.28179813	    -13.13048718	     -7.49999987	      1.79421937	     -0.04634010	      4.71651949	     44.68463067	      4.77422870	     72.12985343	    112.09726413	     83.48929537	     51.90966931	      4.17223606	     71.82175295	    113.66285582	     64.43246587
      8.08333330	     -8.24753804	      0.40830923	     -2.97694186	      0.04963424	      0.91165679	      0.07756622	     12.52240410	     -2.18765020	     -4.59681258	      4.89805098	      0.08548712	     -1.99233085	    -19.33046361	     -7.49999987	     11.22180767	     -5.75565979	     -7.26986731	      4.14592351	      0.07236002	     -2.17404470	    -14.09858090	     -7.49999987	      1.24560506	     -0.12371454	      4.54426601	     45.44164479	      4.68631136	     72.55748657	    111.68022813	     82.22972193	     52.36755153	      4.11162570	     71.94581893	    113.47242957	     64.32936642
      8.10000000	     -8.59415716	      0.46844295	     -2.73505903	      0.04651371	      0.91007420	      0.07671056	     14.51254658	     -2.46036081	     -4.48560868	      7.62564897	      0.13309268	     -1.54853580	    -20.58886001	     -7.49999987	     13.12821750	     -5.82372854	     -6.83699355	      6.79990166	      0.11868067	     -1.62997231	    -15.04591194	     -7.49999987	      0.51019006	     -0.19857767	      4.27794667	     46.36698090	      4.60985918	     72.96522170	    111.35102289	     81.96453000	     52.96298962	      4.11081104	     72.13743763	    113.29183918	     64.40942044
      8.11666670	     -9.15398435	      0.55050225	     -2.48334818	      0.04197593	      0.90729787	      0.07501642	     17.08558687	     -2.79287600	     -4.24653961	     10.93398528	      0.19083404	     -0.91208418	    -21.97979281	     -7.49999987	     15.67188216	     -5.89964268	     -6.47207517	     10.00388650	      0.17460076	     -0.75641771	    -16.03503276	     -7.49999987	     -0.19824310	     -0.24473939	      3.95539758	     47.29222267	      4.47340612	     73.15227976	    111.11660386	     84.05236331	     53.69755028	      4.10671637	     72.23923977	    113.20979888	     65.41283121
      8.13333330	     -9.76448530	      0.68062657	     -2.13300917	      0.03712954	      0.89764056	      0.07264393	     19.93116908	     -3.28402149	     -4.10271685	     14.68439635	      0.25629106	      0.26866071	    -23.28265889	     -7.49999987	     18.68432789	     -5.87619727	     -5.93284285	     13.75776843	      0.24011836	      0.63566458	    -17.27386560	     -7.49999987	     -0.98911174	     -0.29893506	      3.62077841	     48.78078307	      4.46722918	     73.26479366	    111.08311451	     82.65683469	     55.00416805	      4.18531945	     72.16897652	    113.16285739	     65.31474414
      8.15000000	    -10.05811088	      0.77678635	     -1.85212685	      0.03242354	      0.89040513	      0.07243460	     22.59745622	     -3.73785236	     -3.89914443	     18.71837455	      0.32669727	      1.95500613	    -24.20829997	     -7.49999987	     21.54640695	     -5.92850363	     -5.62971114	     17.91753807	      0.31272003	      2.63353934	    -18.05891090	     -7.49999987	     -2.33247229	     -0.33978982	      3.50282408	     50.65387677	      4.48572738	     73.08900944	    110.92809180	     82.65201049	     56.71141715	      4.34409142	     71.91512188	    113.12508128	     65.42719087
      8.16666670	    -11.15622188	      0.86822217	     -1.53828942	      0.02749579	      0.87739482	      0.07132365	     26.53550635	     -4.25224296	     -3.78079588	     23.48504901	      0.40989143	      3.97486923	    -24.84575021	     -7.49999987	     25.66125275	     -6.08559112	     -5.37847805	     22.69571539	      0.39611496	      4.98508246	    -18.48906284	     -7.49999987	     -2.59601382	     -0.34342510	      3.17979355	     52.18585524	      4.42791462	     72.90604242	    111.17795179	     80.37522646	     58.26721469	      4.23098934	     71.60088826	    113.44174232	     65.08458611
      8.18333330	    -12.58346075	      0.87912388	     -1.29621375	      0.02087165	      0.86643456	      0.07029895	     30.99870129	     -4.57049146	     -3.21987999	     28.41208274	      0.49588439	      5.36281654	    -26.52475790	     -7.49999987	     30.40058123	     -6.32700914	     -4.91610185	     28.01486443	      0.48895162	      7.26340837	    -19.33917898	     -7.49999987	     -2.55096849	     -0.29775025	      3.01299698	     54.23613052	      4.57362348	     72.24236654	    111.00736785	     85.26239595	     60.03127437	      4.30871467	     71.23571634	    113.14564859	     67.51539844
      8.20000000	    -13.37684065	      0.86771498	     -1.08991367	      0.01393963	      0.85392170	      0.06814621	     34.83437094	     -4.98146063	     -2.90727831	     33.45359842	      0.58387544	      7.71566814	    -26.69507393	     -7.49999987	     34.49552932	     -6.56596625	     -4.61209982	     33.32221159	      0.58158231	      9.82661161	    -19.72535831	     -7.49999987	     -3.43723560	     -0.24681811	      2.90742168	     56.84146965	      4.54887995	     72.07617428	    111.34588686	     82.50360743	     62.50385072	      4.34408474	     70.85242195	    113.21026193	     66.77738929
      8.21666670	    -14.73403806	      0.83230377	     -0.96073154	      0.00987665	      0.83965032	      0.06745853	     39.49686955	     -5.36878800	     -2.65740986	     38.97541719	      0.68024936	      9.81669547	    -26.95882873	     -7.49999987	     39.15961408	     -6.92037859	     -4.44142002	     38.65557502	      0.67466706	     12.43754810	    -19.55942353	     -7.49999987	     -3.47305622	     -0.20736171	      2.67566937	     58.95249777	      4.70883410	     71.60612356	    111.38548385	     85.61327977	     64.66448102	      4.36005538	     70.52663083	    112.95904805	     67.97402162
